<svg xmlns="http://www.w3.org/2000/svg" xmlns:xlink="http://www.w3.org/1999/xlink"  zoomAndPan="magnify" viewBox="0 0 375 374.999991"  preserveAspectRatio="xMidYMid meet" version="1.0"><defs><g/><clipPath id="36f916dc80"><path d="M 110 162 L 151 162 L 151 202 L 110 202 Z M 110 162 " clip-rule="nonzero"/></clipPath><clipPath id="f025358693"><path d="M 130.519531 162.246094 L 150.144531 181.867188 L 130.519531 201.492188 L 110.898438 181.867188 Z M 130.519531 162.246094 " clip-rule="nonzero"/></clipPath><clipPath id="6b57dbb84d"><path d="M 110 173 L 151 173 L 151 213 L 110 213 Z M 110 173 " clip-rule="nonzero"/></clipPath><clipPath id="cb9849779e"><path d="M 130.519531 173.648438 L 150.144531 193.269531 L 130.519531 212.890625 L 110.898438 193.269531 Z M 130.519531 173.648438 " clip-rule="nonzero"/></clipPath></defs><g clip-path="url(#36f916dc80)"><g clip-path="url(#f025358693)"><path fill="#f0f0f0" d="M 130.519531 162.246094 L 110.898438 181.867188 L 130.519531 201.492188 L 150.144531 181.867188 L 130.519531 162.246094 M 130.519531 200.242188 L 112.136719 181.855469 L 130.519531 163.46875 L 148.90625 181.855469 L 130.519531 200.242188 " fill-opacity="1" fill-rule="nonzero"/></g></g><g fill="#ff00ff" fill-opacity="1"><g transform="translate(164.79367, 196.21547)"><g><path d="M 3.40625 0 L 3.40625 -25.84375 L 6.859375 -25.84375 L 6.859375 -3.140625 L 18.546875 -3.140625 L 18.546875 0 Z M 3.40625 0 "/></g></g></g><g fill="#ff00ff" fill-opacity="1"><g transform="translate(187.272041, 196.21547)"><g><path d="M 22.84375 -10.796875 C 22.84375 -7.972656 22.523438 -5.742188 21.890625 -4.109375 C 21.253906 -2.472656 20.253906 -1.28125 18.890625 -0.53125 C 17.523438 0.207031 15.617188 0.578125 13.171875 0.578125 C 10.722656 0.578125 8.796875 0.195312 7.390625 -0.5625 C 5.984375 -1.320312 4.96875 -2.519531 4.34375 -4.15625 C 3.71875 -5.800781 3.40625 -8.015625 3.40625 -10.796875 L 3.40625 -25.84375 L 6.859375 -25.84375 L 6.859375 -11.171875 C 6.859375 -8.898438 7.0625 -7.148438 7.46875 -5.921875 C 7.882812 -4.703125 8.535156 -3.820312 9.421875 -3.28125 C 10.316406 -2.75 11.546875 -2.484375 13.109375 -2.484375 C 14.691406 -2.484375 15.929688 -2.75 16.828125 -3.28125 C 17.722656 -3.8125 18.375 -4.65625 18.78125 -5.8125 C 19.1875 -6.96875 19.390625 -8.726562 19.390625 -11.09375 L 19.390625 -25.84375 L 22.84375 -25.84375 Z M 22.84375 -10.796875 "/></g></g></g><g fill="#ff00ff" fill-opacity="1"><g transform="translate(216.602686, 196.21547)"><g><path d="M 23.21875 -4.515625 C 22.394531 -3.203125 21.554688 -2.203125 20.703125 -1.515625 C 19.847656 -0.835938 18.851562 -0.328125 17.71875 0.015625 C 16.59375 0.367188 15.265625 0.546875 13.734375 0.546875 C 9.859375 0.546875 7 -0.566406 5.15625 -2.796875 C 3.320312 -5.035156 2.40625 -8.410156 2.40625 -12.921875 C 2.40625 -17.421875 3.316406 -20.789062 5.140625 -23.03125 C 6.960938 -25.269531 9.773438 -26.390625 13.578125 -26.390625 C 15.085938 -26.390625 16.429688 -26.203125 17.609375 -25.828125 C 18.796875 -25.453125 19.796875 -24.9375 20.609375 -24.28125 C 21.421875 -23.632812 22.164062 -22.71875 22.84375 -21.53125 L 20 -19.671875 C 19.457031 -20.585938 18.90625 -21.285156 18.34375 -21.765625 C 17.78125 -22.242188 17.101562 -22.625 16.3125 -22.90625 C 15.53125 -23.1875 14.617188 -23.328125 13.578125 -23.328125 C 10.984375 -23.328125 9.078125 -22.460938 7.859375 -20.734375 C 6.648438 -19.015625 6.046875 -16.410156 6.046875 -12.921875 C 6.046875 -9.484375 6.644531 -6.890625 7.84375 -5.140625 C 9.039062 -3.390625 10.960938 -2.515625 13.609375 -2.515625 C 15.078125 -2.515625 16.351562 -2.804688 17.4375 -3.390625 C 18.519531 -3.972656 19.492188 -4.972656 20.359375 -6.390625 Z M 23.21875 -4.515625 "/></g></g></g><g fill="#ff00ff" fill-opacity="1"><g transform="translate(244.364964, 196.21547)"><g><path d="M 0.953125 0 L 9.78125 -25.84375 L 14.265625 -25.84375 L 23.109375 0 L 19.46875 0 L 17.21875 -6.71875 L 6.6875 -6.71875 L 4.484375 0 Z M 7.734375 -9.859375 L 16.140625 -9.859375 L 11.9375 -22.453125 Z M 7.734375 -9.859375 "/></g></g></g><g fill="#ff00ff" fill-opacity="1"><g transform="translate(271.511091, 196.21547)"><g><path d="M 20.765625 -7.078125 C 20.765625 -4.660156 19.96875 -2.785156 18.375 -1.453125 C 16.789062 -0.117188 14.476562 0.546875 11.4375 0.546875 C 9.101562 0.546875 7.15625 0.132812 5.59375 -0.6875 C 4.039062 -1.507812 2.773438 -2.785156 1.796875 -4.515625 L 4.59375 -6.390625 C 6.050781 -3.804688 8.304688 -2.515625 11.359375 -2.515625 C 13.179688 -2.515625 14.617188 -2.894531 15.671875 -3.65625 C 16.722656 -4.425781 17.25 -5.476562 17.25 -6.8125 C 17.25 -7.570312 17.082031 -8.210938 16.75 -8.734375 C 16.414062 -9.265625 15.972656 -9.707031 15.421875 -10.0625 C 14.878906 -10.414062 14.25 -10.703125 13.53125 -10.921875 C 12.820312 -11.140625 12.082031 -11.347656 11.3125 -11.546875 C 10.039062 -11.859375 8.859375 -12.175781 7.765625 -12.5 C 6.671875 -12.832031 5.722656 -13.257812 4.921875 -13.78125 C 4.117188 -14.300781 3.484375 -14.96875 3.015625 -15.78125 C 2.554688 -16.601562 2.328125 -17.65625 2.328125 -18.9375 C 2.328125 -21.226562 3.066406 -23.039062 4.546875 -24.375 C 6.023438 -25.71875 8.234375 -26.390625 11.171875 -26.390625 C 13.515625 -26.390625 15.378906 -25.957031 16.765625 -25.09375 C 18.160156 -24.226562 19.265625 -23.117188 20.078125 -21.765625 L 17.328125 -19.8125 C 16.660156 -20.9375 15.84375 -21.800781 14.875 -22.40625 C 13.90625 -23.019531 12.671875 -23.328125 11.171875 -23.328125 C 9.484375 -23.328125 8.171875 -22.957031 7.234375 -22.21875 C 6.304688 -21.476562 5.84375 -20.484375 5.84375 -19.234375 C 5.84375 -18.578125 5.984375 -18.023438 6.265625 -17.578125 C 6.546875 -17.128906 6.945312 -16.75 7.46875 -16.4375 C 7.988281 -16.132812 8.640625 -15.875 9.421875 -15.65625 C 10.203125 -15.4375 11.085938 -15.203125 12.078125 -14.953125 C 13.253906 -14.648438 14.367188 -14.328125 15.421875 -13.984375 C 16.484375 -13.640625 17.410156 -13.1875 18.203125 -12.625 C 18.992188 -12.0625 19.617188 -11.335938 20.078125 -10.453125 C 20.535156 -9.578125 20.765625 -8.453125 20.765625 -7.078125 Z M 20.765625 -7.078125 "/></g></g></g><g fill="#00ffff" fill-opacity="1"><g transform="translate(163.3595, 196.21547)"><g><path d="M 3.40625 0 L 3.40625 -25.84375 L 6.859375 -25.84375 L 6.859375 -3.140625 L 18.546875 -3.140625 L 18.546875 0 Z M 3.40625 0 "/></g></g></g><g fill="#00ffff" fill-opacity="1"><g transform="translate(185.837871, 196.21547)"><g><path d="M 22.84375 -10.796875 C 22.84375 -7.972656 22.523438 -5.742188 21.890625 -4.109375 C 21.253906 -2.472656 20.253906 -1.28125 18.890625 -0.53125 C 17.523438 0.207031 15.617188 0.578125 13.171875 0.578125 C 10.722656 0.578125 8.796875 0.195312 7.390625 -0.5625 C 5.984375 -1.320312 4.96875 -2.519531 4.34375 -4.15625 C 3.71875 -5.800781 3.40625 -8.015625 3.40625 -10.796875 L 3.40625 -25.84375 L 6.859375 -25.84375 L 6.859375 -11.171875 C 6.859375 -8.898438 7.0625 -7.148438 7.46875 -5.921875 C 7.882812 -4.703125 8.535156 -3.820312 9.421875 -3.28125 C 10.316406 -2.75 11.546875 -2.484375 13.109375 -2.484375 C 14.691406 -2.484375 15.929688 -2.75 16.828125 -3.28125 C 17.722656 -3.8125 18.375 -4.65625 18.78125 -5.8125 C 19.1875 -6.96875 19.390625 -8.726562 19.390625 -11.09375 L 19.390625 -25.84375 L 22.84375 -25.84375 Z M 22.84375 -10.796875 "/></g></g></g><g fill="#00ffff" fill-opacity="1"><g transform="translate(215.168516, 196.21547)"><g><path d="M 23.21875 -4.515625 C 22.394531 -3.203125 21.554688 -2.203125 20.703125 -1.515625 C 19.847656 -0.835938 18.851562 -0.328125 17.71875 0.015625 C 16.59375 0.367188 15.265625 0.546875 13.734375 0.546875 C 9.859375 0.546875 7 -0.566406 5.15625 -2.796875 C 3.320312 -5.035156 2.40625 -8.410156 2.40625 -12.921875 C 2.40625 -17.421875 3.316406 -20.789062 5.140625 -23.03125 C 6.960938 -25.269531 9.773438 -26.390625 13.578125 -26.390625 C 15.085938 -26.390625 16.429688 -26.203125 17.609375 -25.828125 C 18.796875 -25.453125 19.796875 -24.9375 20.609375 -24.28125 C 21.421875 -23.632812 22.164062 -22.71875 22.84375 -21.53125 L 20 -19.671875 C 19.457031 -20.585938 18.90625 -21.285156 18.34375 -21.765625 C 17.78125 -22.242188 17.101562 -22.625 16.3125 -22.90625 C 15.53125 -23.1875 14.617188 -23.328125 13.578125 -23.328125 C 10.984375 -23.328125 9.078125 -22.460938 7.859375 -20.734375 C 6.648438 -19.015625 6.046875 -16.410156 6.046875 -12.921875 C 6.046875 -9.484375 6.644531 -6.890625 7.84375 -5.140625 C 9.039062 -3.390625 10.960938 -2.515625 13.609375 -2.515625 C 15.078125 -2.515625 16.351562 -2.804688 17.4375 -3.390625 C 18.519531 -3.972656 19.492188 -4.972656 20.359375 -6.390625 Z M 23.21875 -4.515625 "/></g></g></g><g fill="#00ffff" fill-opacity="1"><g transform="translate(242.930794, 196.21547)"><g><path d="M 0.953125 0 L 9.78125 -25.84375 L 14.265625 -25.84375 L 23.109375 0 L 19.46875 0 L 17.21875 -6.71875 L 6.6875 -6.71875 L 4.484375 0 Z M 7.734375 -9.859375 L 16.140625 -9.859375 L 11.9375 -22.453125 Z M 7.734375 -9.859375 "/></g></g></g><g fill="#00ffff" fill-opacity="1"><g transform="translate(270.076921, 196.21547)"><g><path d="M 20.765625 -7.078125 C 20.765625 -4.660156 19.96875 -2.785156 18.375 -1.453125 C 16.789062 -0.117188 14.476562 0.546875 11.4375 0.546875 C 9.101562 0.546875 7.15625 0.132812 5.59375 -0.6875 C 4.039062 -1.507812 2.773438 -2.785156 1.796875 -4.515625 L 4.59375 -6.390625 C 6.050781 -3.804688 8.304688 -2.515625 11.359375 -2.515625 C 13.179688 -2.515625 14.617188 -2.894531 15.671875 -3.65625 C 16.722656 -4.425781 17.25 -5.476562 17.25 -6.8125 C 17.25 -7.570312 17.082031 -8.210938 16.75 -8.734375 C 16.414062 -9.265625 15.972656 -9.707031 15.421875 -10.0625 C 14.878906 -10.414062 14.25 -10.703125 13.53125 -10.921875 C 12.820312 -11.140625 12.082031 -11.347656 11.3125 -11.546875 C 10.039062 -11.859375 8.859375 -12.175781 7.765625 -12.5 C 6.671875 -12.832031 5.722656 -13.257812 4.921875 -13.78125 C 4.117188 -14.300781 3.484375 -14.96875 3.015625 -15.78125 C 2.554688 -16.601562 2.328125 -17.65625 2.328125 -18.9375 C 2.328125 -21.226562 3.066406 -23.039062 4.546875 -24.375 C 6.023438 -25.71875 8.234375 -26.390625 11.171875 -26.390625 C 13.515625 -26.390625 15.378906 -25.957031 16.765625 -25.09375 C 18.160156 -24.226562 19.265625 -23.117188 20.078125 -21.765625 L 17.328125 -19.8125 C 16.660156 -20.9375 15.84375 -21.800781 14.875 -22.40625 C 13.90625 -23.019531 12.671875 -23.328125 11.171875 -23.328125 C 9.484375 -23.328125 8.171875 -22.957031 7.234375 -22.21875 C 6.304688 -21.476562 5.84375 -20.484375 5.84375 -19.234375 C 5.84375 -18.578125 5.984375 -18.023438 6.265625 -17.578125 C 6.546875 -17.128906 6.945312 -16.75 7.46875 -16.4375 C 7.988281 -16.132812 8.640625 -15.875 9.421875 -15.65625 C 10.203125 -15.4375 11.085938 -15.203125 12.078125 -14.953125 C 13.253906 -14.648438 14.367188 -14.328125 15.421875 -13.984375 C 16.484375 -13.640625 17.410156 -13.1875 18.203125 -12.625 C 18.992188 -12.0625 19.617188 -11.335938 20.078125 -10.453125 C 20.535156 -9.578125 20.765625 -8.453125 20.765625 -7.078125 Z M 20.765625 -7.078125 "/></g></g></g><g fill="#71e3db" fill-opacity="1"><g transform="translate(164.076587, 196.21547)"><g><path d="M 3.40625 0 L 3.40625 -25.84375 L 6.859375 -25.84375 L 6.859375 -3.140625 L 18.546875 -3.140625 L 18.546875 0 Z M 3.40625 0 "/></g></g></g><g fill="#71e3db" fill-opacity="1"><g transform="translate(186.554957, 196.21547)"><g><path d="M 22.84375 -10.796875 C 22.84375 -7.972656 22.523438 -5.742188 21.890625 -4.109375 C 21.253906 -2.472656 20.253906 -1.28125 18.890625 -0.53125 C 17.523438 0.207031 15.617188 0.578125 13.171875 0.578125 C 10.722656 0.578125 8.796875 0.195312 7.390625 -0.5625 C 5.984375 -1.320312 4.96875 -2.519531 4.34375 -4.15625 C 3.71875 -5.800781 3.40625 -8.015625 3.40625 -10.796875 L 3.40625 -25.84375 L 6.859375 -25.84375 L 6.859375 -11.171875 C 6.859375 -8.898438 7.0625 -7.148438 7.46875 -5.921875 C 7.882812 -4.703125 8.535156 -3.820312 9.421875 -3.28125 C 10.316406 -2.75 11.546875 -2.484375 13.109375 -2.484375 C 14.691406 -2.484375 15.929688 -2.75 16.828125 -3.28125 C 17.722656 -3.8125 18.375 -4.65625 18.78125 -5.8125 C 19.1875 -6.96875 19.390625 -8.726562 19.390625 -11.09375 L 19.390625 -25.84375 L 22.84375 -25.84375 Z M 22.84375 -10.796875 "/></g></g></g><g fill="#71e3db" fill-opacity="1"><g transform="translate(215.885602, 196.21547)"><g><path d="M 23.21875 -4.515625 C 22.394531 -3.203125 21.554688 -2.203125 20.703125 -1.515625 C 19.847656 -0.835938 18.851562 -0.328125 17.71875 0.015625 C 16.59375 0.367188 15.265625 0.546875 13.734375 0.546875 C 9.859375 0.546875 7 -0.566406 5.15625 -2.796875 C 3.320312 -5.035156 2.40625 -8.410156 2.40625 -12.921875 C 2.40625 -17.421875 3.316406 -20.789062 5.140625 -23.03125 C 6.960938 -25.269531 9.773438 -26.390625 13.578125 -26.390625 C 15.085938 -26.390625 16.429688 -26.203125 17.609375 -25.828125 C 18.796875 -25.453125 19.796875 -24.9375 20.609375 -24.28125 C 21.421875 -23.632812 22.164062 -22.71875 22.84375 -21.53125 L 20 -19.671875 C 19.457031 -20.585938 18.90625 -21.285156 18.34375 -21.765625 C 17.78125 -22.242188 17.101562 -22.625 16.3125 -22.90625 C 15.53125 -23.1875 14.617188 -23.328125 13.578125 -23.328125 C 10.984375 -23.328125 9.078125 -22.460938 7.859375 -20.734375 C 6.648438 -19.015625 6.046875 -16.410156 6.046875 -12.921875 C 6.046875 -9.484375 6.644531 -6.890625 7.84375 -5.140625 C 9.039062 -3.390625 10.960938 -2.515625 13.609375 -2.515625 C 15.078125 -2.515625 16.351562 -2.804688 17.4375 -3.390625 C 18.519531 -3.972656 19.492188 -4.972656 20.359375 -6.390625 Z M 23.21875 -4.515625 "/></g></g></g><g fill="#71e3db" fill-opacity="1"><g transform="translate(243.64788, 196.21547)"><g><path d="M 0.953125 0 L 9.78125 -25.84375 L 14.265625 -25.84375 L 23.109375 0 L 19.46875 0 L 17.21875 -6.71875 L 6.6875 -6.71875 L 4.484375 0 Z M 7.734375 -9.859375 L 16.140625 -9.859375 L 11.9375 -22.453125 Z M 7.734375 -9.859375 "/></g></g></g><g fill="#71e3db" fill-opacity="1"><g transform="translate(270.794008, 196.21547)"><g><path d="M 20.765625 -7.078125 C 20.765625 -4.660156 19.96875 -2.785156 18.375 -1.453125 C 16.789062 -0.117188 14.476562 0.546875 11.4375 0.546875 C 9.101562 0.546875 7.15625 0.132812 5.59375 -0.6875 C 4.039062 -1.507812 2.773438 -2.785156 1.796875 -4.515625 L 4.59375 -6.390625 C 6.050781 -3.804688 8.304688 -2.515625 11.359375 -2.515625 C 13.179688 -2.515625 14.617188 -2.894531 15.671875 -3.65625 C 16.722656 -4.425781 17.25 -5.476562 17.25 -6.8125 C 17.25 -7.570312 17.082031 -8.210938 16.75 -8.734375 C 16.414062 -9.265625 15.972656 -9.707031 15.421875 -10.0625 C 14.878906 -10.414062 14.25 -10.703125 13.53125 -10.921875 C 12.820312 -11.140625 12.082031 -11.347656 11.3125 -11.546875 C 10.039062 -11.859375 8.859375 -12.175781 7.765625 -12.5 C 6.671875 -12.832031 5.722656 -13.257812 4.921875 -13.78125 C 4.117188 -14.300781 3.484375 -14.96875 3.015625 -15.78125 C 2.554688 -16.601562 2.328125 -17.65625 2.328125 -18.9375 C 2.328125 -21.226562 3.066406 -23.039062 4.546875 -24.375 C 6.023438 -25.71875 8.234375 -26.390625 11.171875 -26.390625 C 13.515625 -26.390625 15.378906 -25.957031 16.765625 -25.09375 C 18.160156 -24.226562 19.265625 -23.117188 20.078125 -21.765625 L 17.328125 -19.8125 C 16.660156 -20.9375 15.84375 -21.800781 14.875 -22.40625 C 13.90625 -23.019531 12.671875 -23.328125 11.171875 -23.328125 C 9.484375 -23.328125 8.171875 -22.957031 7.234375 -22.21875 C 6.304688 -21.476562 5.84375 -20.484375 5.84375 -19.234375 C 5.84375 -18.578125 5.984375 -18.023438 6.265625 -17.578125 C 6.546875 -17.128906 6.945312 -16.75 7.46875 -16.4375 C 7.988281 -16.132812 8.640625 -15.875 9.421875 -15.65625 C 10.203125 -15.4375 11.085938 -15.203125 12.078125 -14.953125 C 13.253906 -14.648438 14.367188 -14.328125 15.421875 -13.984375 C 16.484375 -13.640625 17.410156 -13.1875 18.203125 -12.625 C 18.992188 -12.0625 19.617188 -11.335938 20.078125 -10.453125 C 20.535156 -9.578125 20.765625 -8.453125 20.765625 -7.078125 Z M 20.765625 -7.078125 "/></g></g></g><g fill="#f0f0f0" fill-opacity="1"><g transform="translate(164.076587, 213.869093)"><g><path d="M 6.109375 -6.6875 L 3.5 -6.6875 L 3.5 0 L 2.78125 0 L 2.78125 -6.6875 L 0.171875 -6.6875 L 0.171875 -7.328125 L 6.109375 -7.328125 Z M 6.109375 -6.6875 "/></g></g></g><g fill="#f0f0f0" fill-opacity="1"><g transform="translate(172.915357, 213.869093)"><g><path d="M 5.84375 -0.640625 L 5.84375 0 L 0.921875 0 L 0.921875 -7.328125 L 5.75 -7.328125 L 5.75 -6.6875 L 1.640625 -6.6875 L 1.640625 -4.046875 L 5.21875 -4.046875 L 5.21875 -3.4375 L 1.640625 -3.4375 L 1.640625 -0.640625 Z M 5.84375 -0.640625 "/></g></g></g><g fill="#f0f0f0" fill-opacity="1"><g transform="translate(181.743815, 213.869093)"><g><path d="M 0.4375 -3.71875 C 0.4375 -4.15625 0.507812 -4.59375 0.65625 -5.03125 C 0.8125 -5.46875 1.035156 -5.859375 1.328125 -6.203125 C 1.628906 -6.546875 1.992188 -6.820312 2.421875 -7.03125 C 2.859375 -7.25 3.351562 -7.359375 3.90625 -7.359375 C 4.5625 -7.359375 5.117188 -7.207031 5.578125 -6.90625 C 6.046875 -6.613281 6.390625 -6.234375 6.609375 -5.765625 L 6.046875 -5.421875 C 5.929688 -5.660156 5.785156 -5.859375 5.609375 -6.015625 C 5.441406 -6.179688 5.257812 -6.316406 5.0625 -6.421875 C 4.875 -6.523438 4.675781 -6.597656 4.46875 -6.640625 C 4.269531 -6.691406 4.070312 -6.71875 3.875 -6.71875 C 3.425781 -6.71875 3.035156 -6.625 2.703125 -6.4375 C 2.367188 -6.257812 2.082031 -6.023438 1.84375 -5.734375 C 1.613281 -5.453125 1.441406 -5.128906 1.328125 -4.765625 C 1.210938 -4.410156 1.15625 -4.046875 1.15625 -3.671875 C 1.15625 -3.265625 1.222656 -2.875 1.359375 -2.5 C 1.503906 -2.132812 1.695312 -1.804688 1.9375 -1.515625 C 2.1875 -1.234375 2.476562 -1.007812 2.8125 -0.84375 C 3.144531 -0.675781 3.503906 -0.59375 3.890625 -0.59375 C 4.097656 -0.59375 4.3125 -0.617188 4.53125 -0.671875 C 4.75 -0.722656 4.957031 -0.800781 5.15625 -0.90625 C 5.363281 -1.019531 5.550781 -1.160156 5.71875 -1.328125 C 5.894531 -1.503906 6.039062 -1.710938 6.15625 -1.953125 L 6.75 -1.640625 C 6.632812 -1.367188 6.46875 -1.125 6.25 -0.90625 C 6.039062 -0.695312 5.804688 -0.519531 5.546875 -0.375 C 5.285156 -0.238281 5.007812 -0.128906 4.71875 -0.046875 C 4.425781 0.0234375 4.140625 0.0625 3.859375 0.0625 C 3.359375 0.0625 2.894531 -0.046875 2.46875 -0.265625 C 2.050781 -0.484375 1.691406 -0.769531 1.390625 -1.125 C 1.085938 -1.476562 0.851562 -1.878906 0.6875 -2.328125 C 0.519531 -2.785156 0.4375 -3.25 0.4375 -3.71875 Z M 0.4375 -3.71875 "/></g></g></g><g fill="#f0f0f0" fill-opacity="1"><g transform="translate(191.366346, 213.869093)"><g><path d="M 1.640625 -5.984375 L 1.640625 0 L 0.921875 0 L 0.921875 -7.328125 L 1.46875 -7.328125 L 6.328125 -1.234375 L 6.328125 -7.3125 L 7.046875 -7.3125 L 7.046875 0 L 6.421875 0 Z M 1.640625 -5.984375 "/></g></g></g><g fill="#f0f0f0" fill-opacity="1"><g transform="translate(201.875758, 213.869093)"><g><path d="M 3.875 0.046875 C 3.363281 0.046875 2.894531 -0.0546875 2.46875 -0.265625 C 2.039062 -0.472656 1.675781 -0.75 1.375 -1.09375 C 1.070312 -1.445312 0.835938 -1.84375 0.671875 -2.28125 C 0.515625 -2.726562 0.4375 -3.1875 0.4375 -3.65625 C 0.4375 -4.144531 0.519531 -4.613281 0.6875 -5.0625 C 0.863281 -5.507812 1.109375 -5.90625 1.421875 -6.25 C 1.734375 -6.59375 2.097656 -6.863281 2.515625 -7.0625 C 2.929688 -7.269531 3.382812 -7.375 3.875 -7.375 C 4.382812 -7.375 4.847656 -7.265625 5.265625 -7.046875 C 5.691406 -6.828125 6.054688 -6.539062 6.359375 -6.1875 C 6.660156 -5.84375 6.890625 -5.445312 7.046875 -5 C 7.210938 -4.5625 7.296875 -4.113281 7.296875 -3.65625 C 7.296875 -3.164062 7.207031 -2.695312 7.03125 -2.25 C 6.863281 -1.800781 6.625 -1.40625 6.3125 -1.0625 C 6.007812 -0.726562 5.644531 -0.457031 5.21875 -0.25 C 4.800781 -0.0507812 4.351562 0.046875 3.875 0.046875 Z M 1.15625 -3.65625 C 1.15625 -3.257812 1.21875 -2.875 1.34375 -2.5 C 1.476562 -2.132812 1.664062 -1.8125 1.90625 -1.53125 C 2.144531 -1.25 2.429688 -1.019531 2.765625 -0.84375 C 3.097656 -0.675781 3.46875 -0.59375 3.875 -0.59375 C 4.28125 -0.59375 4.648438 -0.679688 4.984375 -0.859375 C 5.328125 -1.046875 5.613281 -1.28125 5.84375 -1.5625 C 6.082031 -1.851562 6.265625 -2.179688 6.390625 -2.546875 C 6.515625 -2.910156 6.578125 -3.28125 6.578125 -3.65625 C 6.578125 -4.0625 6.507812 -4.445312 6.375 -4.8125 C 6.238281 -5.175781 6.050781 -5.5 5.8125 -5.78125 C 5.570312 -6.0625 5.285156 -6.285156 4.953125 -6.453125 C 4.628906 -6.628906 4.269531 -6.71875 3.875 -6.71875 C 3.457031 -6.71875 3.078125 -6.628906 2.734375 -6.453125 C 2.398438 -6.273438 2.113281 -6.039062 1.875 -5.75 C 1.644531 -5.46875 1.46875 -5.144531 1.34375 -4.78125 C 1.21875 -4.414062 1.15625 -4.039062 1.15625 -3.65625 Z M 1.15625 -3.65625 "/></g></g></g><g fill="#f0f0f0" fill-opacity="1"><g transform="translate(212.168605, 213.869093)"><g><path d="M 0.921875 0 L 0.921875 -7.328125 L 1.640625 -7.328125 L 1.640625 -0.640625 L 5.875 -0.640625 L 5.875 0 Z M 0.921875 0 "/></g></g></g><g fill="#f0f0f0" fill-opacity="1"><g transform="translate(220.72894, 213.869093)"><g><path d="M 3.875 0.046875 C 3.363281 0.046875 2.894531 -0.0546875 2.46875 -0.265625 C 2.039062 -0.472656 1.675781 -0.75 1.375 -1.09375 C 1.070312 -1.445312 0.835938 -1.84375 0.671875 -2.28125 C 0.515625 -2.726562 0.4375 -3.1875 0.4375 -3.65625 C 0.4375 -4.144531 0.519531 -4.613281 0.6875 -5.0625 C 0.863281 -5.507812 1.109375 -5.90625 1.421875 -6.25 C 1.734375 -6.59375 2.097656 -6.863281 2.515625 -7.0625 C 2.929688 -7.269531 3.382812 -7.375 3.875 -7.375 C 4.382812 -7.375 4.847656 -7.265625 5.265625 -7.046875 C 5.691406 -6.828125 6.054688 -6.539062 6.359375 -6.1875 C 6.660156 -5.84375 6.890625 -5.445312 7.046875 -5 C 7.210938 -4.5625 7.296875 -4.113281 7.296875 -3.65625 C 7.296875 -3.164062 7.207031 -2.695312 7.03125 -2.25 C 6.863281 -1.800781 6.625 -1.40625 6.3125 -1.0625 C 6.007812 -0.726562 5.644531 -0.457031 5.21875 -0.25 C 4.800781 -0.0507812 4.351562 0.046875 3.875 0.046875 Z M 1.15625 -3.65625 C 1.15625 -3.257812 1.21875 -2.875 1.34375 -2.5 C 1.476562 -2.132812 1.664062 -1.8125 1.90625 -1.53125 C 2.144531 -1.25 2.429688 -1.019531 2.765625 -0.84375 C 3.097656 -0.675781 3.46875 -0.59375 3.875 -0.59375 C 4.28125 -0.59375 4.648438 -0.679688 4.984375 -0.859375 C 5.328125 -1.046875 5.613281 -1.28125 5.84375 -1.5625 C 6.082031 -1.851562 6.265625 -2.179688 6.390625 -2.546875 C 6.515625 -2.910156 6.578125 -3.28125 6.578125 -3.65625 C 6.578125 -4.0625 6.507812 -4.445312 6.375 -4.8125 C 6.238281 -5.175781 6.050781 -5.5 5.8125 -5.78125 C 5.570312 -6.0625 5.285156 -6.285156 4.953125 -6.453125 C 4.628906 -6.628906 4.269531 -6.71875 3.875 -6.71875 C 3.457031 -6.71875 3.078125 -6.628906 2.734375 -6.453125 C 2.398438 -6.273438 2.113281 -6.039062 1.875 -5.75 C 1.644531 -5.46875 1.46875 -5.144531 1.34375 -4.78125 C 1.21875 -4.414062 1.15625 -4.039062 1.15625 -3.65625 Z M 1.15625 -3.65625 "/></g></g></g><g fill="#f0f0f0" fill-opacity="1"><g transform="translate(231.021784, 213.869093)"><g><path d="M 6.203125 -1.078125 C 5.523438 -0.328125 4.742188 0.046875 3.859375 0.046875 C 3.359375 0.046875 2.898438 -0.0546875 2.484375 -0.265625 C 2.066406 -0.484375 1.707031 -0.765625 1.40625 -1.109375 C 1.101562 -1.460938 0.863281 -1.859375 0.6875 -2.296875 C 0.519531 -2.742188 0.4375 -3.203125 0.4375 -3.671875 C 0.4375 -4.160156 0.519531 -4.628906 0.6875 -5.078125 C 0.851562 -5.523438 1.085938 -5.914062 1.390625 -6.25 C 1.691406 -6.59375 2.046875 -6.863281 2.453125 -7.0625 C 2.867188 -7.269531 3.320312 -7.375 3.8125 -7.375 C 4.175781 -7.375 4.503906 -7.332031 4.796875 -7.25 C 5.085938 -7.175781 5.347656 -7.066406 5.578125 -6.921875 C 5.816406 -6.785156 6.019531 -6.617188 6.1875 -6.421875 C 6.351562 -6.222656 6.492188 -6.007812 6.609375 -5.78125 L 6.046875 -5.40625 C 5.804688 -5.851562 5.492188 -6.179688 5.109375 -6.390625 C 4.722656 -6.609375 4.289062 -6.71875 3.8125 -6.71875 C 3.40625 -6.71875 3.035156 -6.628906 2.703125 -6.453125 C 2.378906 -6.285156 2.101562 -6.0625 1.875 -5.78125 C 1.644531 -5.5 1.46875 -5.171875 1.34375 -4.796875 C 1.21875 -4.429688 1.15625 -4.050781 1.15625 -3.65625 C 1.15625 -3.25 1.222656 -2.859375 1.359375 -2.484375 C 1.503906 -2.109375 1.703125 -1.78125 1.953125 -1.5 C 2.203125 -1.226562 2.492188 -1.007812 2.828125 -0.84375 C 3.160156 -0.675781 3.519531 -0.59375 3.90625 -0.59375 C 4.320312 -0.59375 4.722656 -0.691406 5.109375 -0.890625 C 5.492188 -1.085938 5.859375 -1.398438 6.203125 -1.828125 L 6.203125 -3.046875 L 4.578125 -3.046875 L 4.578125 -3.59375 L 6.8125 -3.59375 L 6.8125 0 L 6.203125 0 Z M 6.203125 -1.078125 "/></g></g></g><g fill="#f0f0f0" fill-opacity="1"><g transform="translate(240.953693, 213.869093)"><g><path d="M 0.921875 0 L 0.921875 -7.328125 L 1.640625 -7.328125 L 1.640625 0 Z M 0.921875 0 "/></g></g></g><g fill="#f0f0f0" fill-opacity="1"><g transform="translate(246.05932, 213.869093)"><g><path d="M 3.1875 -7.328125 L 3.796875 -7.328125 L 6.84375 0 L 6.078125 0 L 5.125 -2.296875 L 1.828125 -2.296875 L 0.890625 0 L 0.125 0 Z M 4.953125 -2.859375 L 3.484375 -6.46875 L 1.984375 -2.859375 Z M 4.953125 -2.859375 "/></g></g></g><g clip-path="url(#6b57dbb84d)"><g clip-path="url(#cb9849779e)"><path fill="#f0f0f0" d="M 130.519531 173.648438 L 110.898438 193.269531 L 130.519531 212.890625 L 150.144531 193.269531 L 130.519531 173.648438 M 130.519531 211.640625 L 112.136719 193.257812 L 130.519531 174.871094 L 148.90625 193.257812 L 130.519531 211.640625 " fill-opacity="1" fill-rule="nonzero"/></g></g></svg>